<svg width="16" height="20" viewBox="0 0 16 20" fill="none" xmlns="http://www.w3.org/2000/svg">
<path d="M3.83333 9.99998C3.83333 9.53974 4.20643 9.16665 4.66667 9.16665H11.3333C11.7936 9.16665 12.1667 9.53974 12.1667 9.99998C12.1667 10.4602 11.7936 10.8333 11.3333 10.8333H4.66667C4.20643 10.8333 3.83333 10.4602 3.83333 9.99998Z" fill="white"/>
<path d="M4.66667 13.3333C4.20643 13.3333 3.83333 13.7064 3.83333 14.1666C3.83333 14.6269 4.20643 15 4.66667 15H11.3333C11.7936 15 12.1667 14.6269 12.1667 14.1666C12.1667 13.7064 11.7936 13.3333 11.3333 13.3333H4.66667Z" fill="white"/>
<path fill-rule="evenodd" clip-rule="evenodd" d="M3.83333 0.833313C1.99238 0.833313 0.5 2.3257 0.5 4.16665V15.8333C0.5 17.6743 1.99238 19.1666 3.83333 19.1666H12.1667C14.0076 19.1666 15.5 17.6743 15.5 15.8333V7.57177C15.5 6.79198 15.2266 6.03687 14.7274 5.43782L11.8898 2.0327C11.2565 1.27272 10.3183 0.833313 9.32906 0.833313H3.83333ZM2.16667 4.16665C2.16667 3.24617 2.91286 2.49998 3.83333 2.49998H8.83333V4.99998C8.83333 6.84093 10.3257 8.33331 12.1667 8.33331H13.8333V15.8333C13.8333 16.7538 13.0871 17.5 12.1667 17.5H3.83333C2.91286 17.5 2.16667 16.7538 2.16667 15.8333V4.16665ZM13.5661 6.66665C13.5299 6.61059 13.4901 6.55653 13.447 6.5048L10.6094 3.09967C10.5747 3.05803 10.5382 3.01831 10.5 2.9806V4.99998C10.5 5.92045 11.2462 6.66665 12.1667 6.66665H13.5661Z" fill="white"/>
</svg>
