<svg width="20" height="20" viewBox="0 0 20 20" fill="none" xmlns="http://www.w3.org/2000/svg">
<path fill-rule="evenodd" clip-rule="evenodd" d="M11.9121 1.98751C10.7644 1.1841 9.23678 1.18409 8.08905 1.98751L2.35773 5.99943C1.39222 6.67529 0.855367 7.81077 0.945758 8.98586L1.53327 16.6236C1.64408 18.064 2.94925 19.111 4.37946 18.9067L7.02081 18.5294C8.25243 18.3534 9.16726 17.2986 9.16726 16.0545V15C9.16726 14.5397 9.54035 14.1666 10.0006 14.1666C10.4608 14.1666 10.8339 14.5397 10.8339 15V16.0545C10.8339 17.2986 11.7487 18.3534 12.9804 18.5294L15.6217 18.9067C17.0519 19.111 18.3571 18.064 18.4679 16.6236L19.0554 8.98586C19.1458 7.81077 18.609 6.67529 17.6434 5.99943L11.9121 1.98751ZM9.04482 3.35289C9.61868 2.95119 10.3825 2.95119 10.9564 3.3529L16.6877 7.36482C17.1704 7.70275 17.4389 8.27049 17.3937 8.85803L16.8061 16.4957C16.7692 16.9759 16.3342 17.3249 15.8574 17.2568L13.2161 16.8794C12.8055 16.8208 12.5006 16.4692 12.5006 16.0545V15C12.5006 13.6193 11.3813 12.5 10.0006 12.5C8.61988 12.5 7.50059 13.6193 7.50059 15V16.0545C7.50059 16.4692 7.19565 16.8208 6.78511 16.8794L4.14376 17.2568C3.66703 17.3249 3.23197 16.9759 3.19503 16.4957L2.60752 8.85803C2.56232 8.27048 2.83075 7.70275 3.3135 7.36481L9.04482 3.35289Z" fill="white"/>
</svg>
