<svg width="20" height="18" viewBox="0 0 20 18" fill="none" xmlns="http://www.w3.org/2000/svg">
<path fill-rule="evenodd" clip-rule="evenodd" d="M11.9121 0.98751C10.7644 0.184096 9.23674 0.184094 8.08901 0.987508L2.35769 4.99943C1.39218 5.67529 0.855327 6.81077 0.945718 7.98586L1.53323 15.6236C1.64404 17.064 2.94921 18.111 4.37942 17.9067L7.02077 17.5294C8.25239 17.3534 9.16722 16.2986 9.16722 15.0545V14C9.16722 13.5397 9.54031 13.1666 10.0005 13.1666C10.4608 13.1666 10.8339 13.5397 10.8339 14V15.0545C10.8339 16.2986 11.7487 17.3534 12.9803 17.5294L15.6217 17.9067C17.0519 18.111 18.3571 17.064 18.4679 15.6236L19.0554 7.98586C19.1458 6.81077 18.6089 5.67529 17.6434 4.99943L11.9121 0.98751ZM9.04478 2.35289C9.61864 1.95119 10.3825 1.95119 10.9563 2.3529L16.6876 6.36482C17.1704 6.70275 17.4388 7.27049 17.3936 7.85803L16.8061 15.4957C16.7692 15.9759 16.3341 16.3249 15.8574 16.2568L13.216 15.8794C12.8055 15.8208 12.5005 15.4692 12.5005 15.0545V14C12.5005 12.6193 11.3813 11.5 10.0005 11.5C8.61984 11.5 7.50055 12.6193 7.50055 14V15.0545C7.50055 15.4692 7.19561 15.8208 6.78507 15.8794L4.14372 16.2568C3.66699 16.3249 3.23193 15.9759 3.19499 15.4957L2.60748 7.85803C2.56228 7.27048 2.83071 6.70275 3.31346 6.36481L9.04478 2.35289Z" fill="#2B71F0"/>
</svg>
