<svg width="133" height="136" viewBox="0 0 133 136" fill="none" xmlns="http://www.w3.org/2000/svg">
<rect y="0.889648" width="133" height="134.22" rx="66.5" fill="#D0E0FC"/>
<path fill-rule="evenodd" clip-rule="evenodd" d="M77.5061 56.7485L90.9155 43.3391L90.9088 43.3324C87.8303 40.2539 81.9984 42.1979 70.3346 46.0858L56.983 50.5364C47.5691 53.6743 42.8622 55.2433 41.5246 57.5441C40.2522 59.7328 40.2522 62.4361 41.5246 64.6249C42.8622 66.9256 47.5691 68.4946 56.983 71.6326C58.1496 72.0215 59.4621 71.7438 60.3357 70.8783L74.6113 56.735C75.4144 55.9393 76.7105 55.9454 77.5061 56.7485Z" fill="#2B71F0"/>
<path opacity="0.5" d="M83.7049 77.2565L88.1555 63.9049C92.0406 52.2495 93.9846 46.4176 90.9157 43.3374L77.5063 56.7468C78.302 57.5499 78.2959 58.846 77.4928 59.6417L63.4478 73.5565C62.4849 74.5105 62.1801 75.9706 62.6087 77.2565C65.7467 86.6703 67.3156 91.3772 69.6164 92.7148C71.8052 93.9873 74.5085 93.9873 76.6972 92.7148C78.998 91.3772 80.567 86.6703 83.7049 77.2565Z" fill="#2B71F0"/>
</svg>
