<svg width="19" height="20" viewBox="0 0 19 20" fill="none" xmlns="http://www.w3.org/2000/svg">
<path fill-rule="evenodd" clip-rule="evenodd" d="M12.7159 14.9736H5.49591C5.08191 14.9736 4.74591 14.6376 4.74591 14.2236C4.74591 13.8096 5.08191 13.4736 5.49591 13.4736H12.7159C13.1299 13.4736 13.4659 13.8096 13.4659 14.2236C13.4659 14.6376 13.1299 14.9736 12.7159 14.9736" fill="#2B71F0"/>
<path fill-rule="evenodd" clip-rule="evenodd" d="M12.7159 10.787H5.49591C5.08191 10.787 4.74591 10.451 4.74591 10.037C4.74591 9.62305 5.08191 9.28705 5.49591 9.28705H12.7159C13.1299 9.28705 13.4659 9.62305 13.4659 10.037C13.4659 10.451 13.1299 10.787 12.7159 10.787" fill="#2B71F0"/>
<path fill-rule="evenodd" clip-rule="evenodd" d="M8.25061 6.61023H5.49561C5.08161 6.61023 4.74561 6.27423 4.74561 5.86023C4.74561 5.44623 5.08161 5.11023 5.49561 5.11023H8.25061C8.66461 5.11023 9.00061 5.44623 9.00061 5.86023C9.00061 6.27423 8.66461 6.61023 8.25061 6.61023" fill="#2B71F0"/>
<mask id="mask0_43_2514" style="mask-type:luminance" maskUnits="userSpaceOnUse" x="0" y="0" width="19" height="20">
<path fill-rule="evenodd" clip-rule="evenodd" d="M6.10352e-05 6.10352e-05H18.1648V19.9099H6.10352e-05V6.10352e-05Z" fill="white"/>
</mask>
<g mask="url(#mask0_43_2514)">
<path fill-rule="evenodd" clip-rule="evenodd" d="M12.9087 1.49982L5.21972 1.50382C2.89172 1.51782 1.49972 2.95782 1.49972 5.35682V14.5528C1.49972 16.9678 2.90472 18.4098 5.25572 18.4098L12.9447 18.4068C15.2727 18.3928 16.6647 16.9508 16.6647 14.5528V5.35682C16.6647 2.94182 15.2607 1.49982 12.9087 1.49982ZM5.25676 19.9098C2.11276 19.9098 -0.000244141 17.7568 -0.000244141 14.5528V5.35682C-0.000244141 2.12382 2.04676 0.0228169 5.21476 0.00381689L12.9078 -0.000183105H12.9088C16.0528 -0.000183105 18.1648 2.15282 18.1648 5.35682V14.5528C18.1648 17.7848 16.1178 19.8868 12.9498 19.9068L5.25676 19.9098Z" fill="#2B71F0"/>
</g>
</svg>
