<svg width="20" height="17" viewBox="0 0 20 17" fill="none" xmlns="http://www.w3.org/2000/svg">
<path fill-rule="evenodd" clip-rule="evenodd" d="M9.99962 6.1413C8.66962 6.1413 7.58862 7.2233 7.58862 8.5533C7.58862 9.8823 8.66962 10.9633 9.99962 10.9633C11.3296 10.9633 12.4116 9.8823 12.4116 8.5533C12.4116 7.2233 11.3296 6.1413 9.99962 6.1413ZM9.99962 12.4633C7.84262 12.4633 6.08862 10.7093 6.08862 8.5533C6.08862 6.3963 7.84262 4.6413 9.99962 4.6413C12.1566 4.6413 13.9116 6.3963 13.9116 8.5533C13.9116 10.7093 12.1566 12.4633 9.99962 12.4633Z" fill="white"/>
<mask id="mask0_43_1082" style="mask-type:luminance" maskUnits="userSpaceOnUse" x="0" y="0" width="20" height="17">
<path fill-rule="evenodd" clip-rule="evenodd" d="M0.00012207 0.500183H20V16.6052H0.00012207V0.500183Z" fill="white"/>
</mask>
<g mask="url(#mask0_43_1082)">
<path fill-rule="evenodd" clip-rule="evenodd" d="M1.56987 8.55251C3.42987 12.6615 6.56287 15.1045 9.99987 15.1055C13.4369 15.1045 16.5699 12.6615 18.4299 8.55251C16.5699 4.44451 13.4369 2.00151 9.99987 2.00051C6.56387 2.00151 3.42987 4.44451 1.56987 8.55251ZM10.0019 16.6055H9.99787H9.99687C5.86087 16.6025 2.14687 13.7035 0.0608721 8.84851C-0.0201279 8.65951 -0.0201279 8.44551 0.0608721 8.25651C2.14687 3.40251 5.86187 0.503506 9.99687 0.500506C9.99887 0.499506 9.99887 0.499506 9.99987 0.500506C10.0019 0.499506 10.0019 0.499506 10.0029 0.500506C14.1389 0.503506 17.8529 3.40251 19.9389 8.25651C20.0209 8.44551 20.0209 8.65951 19.9389 8.84851C17.8539 13.7035 14.1389 16.6025 10.0029 16.6055H10.0019Z" fill="white"/>
</g>
</svg>
