<svg width="12" height="16" viewBox="0 0 12 16" fill="none" xmlns="http://www.w3.org/2000/svg">
<path d="M2.66667 8.00002C2.66667 7.63183 2.96514 7.33335 3.33333 7.33335H8.66667C9.03486 7.33335 9.33333 7.63183 9.33333 8.00002C9.33333 8.36821 9.03486 8.66669 8.66667 8.66669H3.33333C2.96514 8.66669 2.66667 8.36821 2.66667 8.00002Z" fill="#2B71F0"/>
<path d="M3.33333 10.6667C2.96514 10.6667 2.66667 10.9652 2.66667 11.3334C2.66667 11.7015 2.96514 12 3.33333 12H8.66667C9.03486 12 9.33333 11.7015 9.33333 11.3334C9.33333 10.9652 9.03486 10.6667 8.66667 10.6667H3.33333Z" fill="#2B71F0"/>
<path fill-rule="evenodd" clip-rule="evenodd" d="M2.66667 0.666687C1.19391 0.666687 0 1.86059 0 3.33335V12.6667C0 14.1394 1.19391 15.3334 2.66667 15.3334H9.33333C10.8061 15.3334 12 14.1394 12 12.6667V6.05745C12 5.43362 11.7813 4.82954 11.3819 4.3503L9.11184 1.6262C8.60519 1.01821 7.85466 0.666687 7.06325 0.666687H2.66667ZM1.33333 3.33335C1.33333 2.59697 1.93029 2.00002 2.66667 2.00002H6.66667V4.00002C6.66667 5.47278 7.86057 6.66669 9.33333 6.66669H10.6667V12.6667C10.6667 13.4031 10.0697 14 9.33333 14H2.66667C1.93029 14 1.33333 13.4031 1.33333 12.6667V3.33335ZM10.4529 5.33335C10.4239 5.28851 10.3921 5.24526 10.3576 5.20387L8.08755 2.47977C8.05978 2.44646 8.03056 2.41469 8 2.38451V4.00002C8 4.7364 8.59695 5.33335 9.33333 5.33335H10.4529Z" fill="#2B71F0"/>
</svg>
