<svg width="12" height="15" viewBox="0 0 12 15" fill="none" xmlns="http://www.w3.org/2000/svg">
<path d="M2.66667 7.33333C2.66667 6.96514 2.96514 6.66667 3.33333 6.66667H8.66667C9.03486 6.66667 9.33333 6.96514 9.33333 7.33333C9.33333 7.70152 9.03486 8 8.66667 8H3.33333C2.96514 8 2.66667 7.70152 2.66667 7.33333Z" fill="#98A2B3"/>
<path d="M3.33333 10C2.96514 10 2.66667 10.2985 2.66667 10.6667C2.66667 11.0349 2.96514 11.3333 3.33333 11.3333H8.66667C9.03486 11.3333 9.33333 11.0349 9.33333 10.6667C9.33333 10.2985 9.03486 10 8.66667 10H3.33333Z" fill="#98A2B3"/>
<path fill-rule="evenodd" clip-rule="evenodd" d="M2.66667 0C1.19391 0 0 1.19391 0 2.66667V12C0 13.4728 1.19391 14.6667 2.66667 14.6667H9.33333C10.8061 14.6667 12 13.4728 12 12V5.39077C12 4.76694 11.7813 4.16285 11.3819 3.68361L9.11184 0.959508C8.60519 0.351528 7.85466 0 7.06325 0H2.66667ZM1.33333 2.66667C1.33333 1.93029 1.93029 1.33333 2.66667 1.33333H6.66667V3.33333C6.66667 4.80609 7.86057 6 9.33333 6H10.6667V12C10.6667 12.7364 10.0697 13.3333 9.33333 13.3333H2.66667C1.93029 13.3333 1.33333 12.7364 1.33333 12V2.66667ZM10.4529 4.66667C10.4239 4.62182 10.3921 4.57858 10.3576 4.53719L8.08755 1.81309C8.05978 1.77977 8.03056 1.748 8 1.71783V3.33333C8 4.06971 8.59695 4.66667 9.33333 4.66667H10.4529Z" fill="#98A2B3"/>
</svg>
